<?xml version="1.0" encoding="utf-8"?>
<!-- Generator: Adobe Illustrator 17.0.0, SVG Export Plug-In . SVG Version: 6.00 Build 0)  -->
<!DOCTYPE svg PUBLIC "-//W3C//DTD SVG 1.1//EN" "http://www.w3.org/Graphics/SVG/1.1/DTD/svg11.dtd">
<svg version="1.1" id="Layer_1" xmlns="http://www.w3.org/2000/svg" xmlns:xlink="http://www.w3.org/1999/xlink" x="0px" y="0px"
	 width="65.2px" height="25.51px" viewBox="0 0 65.2 25.51" enable-background="new 0 0 65.2 25.51" xml:space="preserve">
<g>
	<polygon fill="#FFFFFF" points="9.977,12.363 6.749,12.363 12.349,6.763 12.349,0.014 0,12.363 3.229,12.363 15.538,24.672 
		15.538,17.925 	"/>
	<polygon fill="#FFFFFF" points="18.13,8.931 20.469,8.931 16.412,12.989 16.412,17.876 25.357,8.931 23.019,8.931 14.101,0.014 
		14.101,4.903 	"/>
	<g>
		<polygon fill="#FFFFFF" points="25.446,12.615 26.822,12.615 26.822,15.371 29.407,12.615 31.212,12.615 28.468,15.367 
			31.354,19.305 29.554,19.305 27.494,16.384 26.822,17.068 26.822,19.305 25.446,19.305 		"/>
		<path fill="#FFFFFF" d="M35.255,14.458c0.345,0.155,0.629,0.398,0.855,0.733c0.202,0.294,0.334,0.634,0.394,1.022
			c0.035,0.227,0.048,0.555,0.043,0.982h-3.603c0.019,0.497,0.193,0.844,0.518,1.044c0.197,0.124,0.434,0.186,0.714,0.186
			c0.293,0,0.533-0.076,0.718-0.227c0.1-0.082,0.188-0.196,0.266-0.341h1.321c-0.035,0.294-0.194,0.592-0.479,0.895
			c-0.443,0.481-1.065,0.721-1.862,0.721c-0.658,0-1.239-0.204-1.741-0.61c-0.504-0.405-0.756-1.065-0.756-1.98
			c0-0.855,0.228-1.514,0.683-1.972c0.454-0.456,1.043-0.685,1.769-0.685C34.522,14.227,34.909,14.304,35.255,14.458 M33.32,15.577
			c-0.182,0.188-0.297,0.444-0.345,0.765h2.229c-0.023-0.344-0.139-0.604-0.344-0.782c-0.206-0.178-0.463-0.267-0.768-0.267
			C33.76,15.292,33.502,15.388,33.32,15.577"/>
		<path fill="#FFFFFF" d="M37.396,20.254l0.163,0.01c0.128,0.006,0.248,0.001,0.364-0.015c0.114-0.014,0.212-0.048,0.29-0.103
			c0.076-0.052,0.146-0.16,0.211-0.323c0.064-0.164,0.093-0.263,0.083-0.3l-1.817-5.164h1.438l1.08,3.65l1.021-3.65h1.377
			l-1.697,4.865c-0.328,0.938-0.588,1.519-0.778,1.745c-0.191,0.226-0.572,0.338-1.145,0.338c-0.115,0-0.209-0.001-0.277-0.002
			c-0.071-0.002-0.176-0.008-0.313-0.016C37.396,21.289,37.396,20.254,37.396,20.254z"/>
		<path fill="#FFFFFF" d="M41.951,14.956v-0.465h0.718v-0.762c0-0.384,0.076-0.687,0.231-0.911c0.155-0.223,0.419-0.335,0.789-0.335
			c0.087,0,0.169,0.003,0.242,0.009c0.075,0.007,0.149,0.017,0.223,0.028v0.513c-0.123-0.031-0.234-0.047-0.334-0.047
			c-0.142,0-0.254,0.025-0.335,0.078c-0.081,0.052-0.138,0.122-0.177,0.209c-0.037,0.086-0.06,0.184-0.068,0.294
			c-0.012,0.108-0.016,0.218-0.016,0.329v0.595h0.929v0.465h-0.929v4.349h-0.557v-4.349C42.667,14.956,41.951,14.956,41.951,14.956z
			"/>
		<path fill="#FFFFFF" d="M45.606,19.305h-0.558v-4.814h0.558v0.902h0.018c0.154-0.384,0.355-0.654,0.599-0.805
			s0.568-0.227,0.971-0.227v0.605c-0.315-0.008-0.575,0.043-0.781,0.147c-0.204,0.107-0.367,0.248-0.487,0.428
			c-0.122,0.18-0.206,0.392-0.253,0.637c-0.046,0.245-0.068,0.5-0.068,0.767L45.606,19.305L45.606,19.305z"/>
		<path fill="#FFFFFF" d="M50.327,16.498c0.105-0.012,0.231-0.031,0.376-0.054c0.145-0.026,0.265-0.06,0.358-0.103
			c0.094-0.044,0.15-0.116,0.172-0.219c0.021-0.103,0.033-0.197,0.033-0.284c0-0.284-0.091-0.519-0.273-0.701
			c-0.184-0.182-0.493-0.273-0.926-0.273c-0.191,0-0.369,0.016-0.53,0.05c-0.161,0.035-0.302,0.092-0.423,0.177
			c-0.12,0.083-0.219,0.195-0.297,0.335s-0.128,0.314-0.153,0.525h-0.566c0.017-0.286,0.082-0.528,0.194-0.73
			c0.111-0.202,0.256-0.365,0.432-0.493c0.177-0.126,0.38-0.219,0.614-0.277c0.234-0.06,0.478-0.089,0.739-0.089
			c0.241,0,0.469,0.025,0.684,0.08c0.213,0.052,0.4,0.136,0.557,0.25c0.159,0.114,0.282,0.268,0.372,0.461
			c0.09,0.193,0.136,0.427,0.136,0.705v2.622c0,0.217,0.038,0.356,0.116,0.415c0.076,0.058,0.233,0.044,0.468-0.043v0.436
			c-0.045,0.012-0.108,0.031-0.191,0.056s-0.165,0.037-0.246,0.037c-0.087,0-0.17-0.01-0.251-0.028
			c-0.093-0.013-0.166-0.042-0.222-0.088c-0.057-0.046-0.101-0.101-0.136-0.167c-0.033-0.065-0.056-0.136-0.07-0.213
			c-0.012-0.079-0.018-0.16-0.018-0.247c-0.235,0.261-0.505,0.459-0.808,0.594c-0.304,0.138-0.632,0.205-0.985,0.205
			c-0.211,0-0.414-0.026-0.611-0.083c-0.194-0.054-0.366-0.143-0.516-0.259c-0.146-0.118-0.266-0.264-0.353-0.432
			c-0.085-0.171-0.13-0.374-0.13-0.611c0-0.816,0.561-1.299,1.683-1.449L50.327,16.498z M51.266,16.777
			c-0.237,0.1-0.475,0.164-0.717,0.196c-0.241,0.03-0.483,0.054-0.725,0.074c-0.427,0.032-0.759,0.128-0.998,0.287
			c-0.239,0.163-0.359,0.407-0.359,0.735c0,0.149,0.029,0.278,0.089,0.386c0.058,0.109,0.137,0.199,0.231,0.27
			c0.097,0.072,0.209,0.124,0.335,0.159c0.126,0.034,0.256,0.05,0.385,0.05c0.224,0,0.441-0.028,0.653-0.083
			c0.209-0.056,0.398-0.142,0.56-0.256c0.166-0.114,0.297-0.26,0.396-0.436s0.149-0.387,0.149-0.628v-0.754H51.266z"/>
		<path fill="#FFFFFF" d="M53.765,19.305h-0.557v-4.814h0.557v0.725h0.019c0.142-0.279,0.347-0.492,0.614-0.637
			s0.558-0.218,0.874-0.218c0.223,0,0.412,0.025,0.566,0.074c0.155,0.05,0.287,0.116,0.396,0.2s0.198,0.182,0.27,0.293
			c0.072,0.112,0.132,0.232,0.18,0.363c0.161-0.315,0.377-0.551,0.647-0.702c0.269-0.151,0.579-0.227,0.924-0.227
			c0.33,0,0.59,0.054,0.785,0.163c0.196,0.107,0.347,0.251,0.452,0.427c0.105,0.178,0.174,0.38,0.208,0.608
			c0.035,0.232,0.052,0.466,0.052,0.708v3.039h-0.558V15.98c0-0.347-0.073-0.62-0.219-0.819c-0.144-0.197-0.416-0.297-0.812-0.297
			c-0.205,0-0.4,0.046-0.59,0.135c-0.188,0.091-0.355,0.227-0.496,0.415c-0.062,0.08-0.114,0.175-0.153,0.281
			c-0.041,0.111-0.074,0.223-0.099,0.339c-0.024,0.118-0.041,0.237-0.05,0.353c-0.01,0.12-0.014,0.227-0.014,0.327v2.593h-0.558
			V15.98c0-0.347-0.074-0.62-0.217-0.819c-0.147-0.197-0.418-0.297-0.814-0.297c-0.204,0-0.401,0.046-0.589,0.135
			c-0.19,0.091-0.355,0.227-0.498,0.415c-0.062,0.08-0.112,0.175-0.152,0.281c-0.042,0.111-0.074,0.223-0.098,0.339
			c-0.024,0.118-0.043,0.237-0.05,0.353c-0.01,0.12-0.015,0.227-0.015,0.327v2.591H53.765z"/>
		<path fill="#FFFFFF" d="M61.369,17.027c0,0.261,0.035,0.507,0.103,0.741c0.068,0.232,0.169,0.433,0.302,0.603
			c0.134,0.171,0.303,0.306,0.507,0.409c0.205,0.103,0.439,0.153,0.706,0.153c0.366,0,0.679-0.096,0.94-0.287
			c0.259-0.193,0.433-0.465,0.52-0.818h0.623c-0.068,0.229-0.158,0.441-0.27,0.636c-0.111,0.196-0.251,0.365-0.418,0.512
			c-0.167,0.144-0.366,0.258-0.593,0.337c-0.231,0.081-0.496,0.122-0.801,0.122c-0.384,0-0.716-0.066-0.994-0.196
			c-0.279-0.13-0.509-0.308-0.687-0.533c-0.181-0.227-0.314-0.492-0.399-0.801c-0.087-0.306-0.132-0.636-0.132-0.989
			s0.052-0.684,0.154-0.994c0.102-0.309,0.247-0.583,0.437-0.813c0.188-0.233,0.42-0.415,0.692-0.549
			c0.273-0.132,0.583-0.2,0.929-0.2c0.663,0,1.183,0.227,1.561,0.683c0.378,0.456,0.564,1.117,0.559,1.984
			C65.108,17.027,61.369,17.027,61.369,17.027z M64.51,16.564c0-0.237-0.032-0.458-0.097-0.665c-0.064-0.208-0.161-0.387-0.289-0.54
			c-0.126-0.15-0.287-0.271-0.478-0.362c-0.192-0.089-0.412-0.134-0.66-0.134s-0.465,0.046-0.656,0.14
			c-0.188,0.091-0.349,0.217-0.483,0.37c-0.134,0.157-0.24,0.335-0.322,0.54c-0.08,0.205-0.132,0.422-0.157,0.651H64.51z"/>
		<polygon fill="#FFFFFF" points="27.677,24.884 28.299,22.877 28.58,22.877 27.811,25.25 27.518,25.25 26.999,23.257 26.99,23.257 
			26.464,25.25 26.134,25.25 25.411,22.877 25.685,22.877 26.298,24.901 26.849,22.877 27.155,22.877 		"/>
		<path fill="#FFFFFF" d="M29.149,24.129c0,0.127,0.015,0.248,0.049,0.361c0.034,0.117,0.082,0.216,0.149,0.3
			c0.065,0.084,0.147,0.151,0.249,0.202c0.101,0.05,0.217,0.076,0.349,0.076c0.178,0,0.333-0.047,0.463-0.142
			c0.128-0.095,0.212-0.23,0.255-0.403h0.307c-0.034,0.112-0.078,0.217-0.134,0.314c-0.053,0.095-0.123,0.18-0.206,0.252
			c-0.082,0.071-0.179,0.128-0.292,0.167c-0.114,0.039-0.246,0.06-0.394,0.06c-0.191,0-0.353-0.033-0.493-0.097
			c-0.136-0.064-0.248-0.151-0.337-0.263s-0.153-0.243-0.198-0.395c-0.043-0.151-0.064-0.314-0.064-0.488
			c0-0.174,0.025-0.337,0.076-0.491c0.051-0.151,0.122-0.285,0.215-0.399c0.095-0.114,0.208-0.206,0.341-0.272
			c0.135-0.066,0.287-0.099,0.46-0.099c0.326,0,0.582,0.112,0.768,0.337c0.186,0.224,0.278,0.551,0.275,0.979h-1.838V24.129z
			 M30.696,23.898c0-0.116-0.017-0.225-0.048-0.327c-0.033-0.104-0.08-0.192-0.144-0.265c-0.062-0.076-0.14-0.135-0.235-0.18
			c-0.095-0.045-0.204-0.066-0.324-0.066c-0.124,0-0.231,0.023-0.324,0.068c-0.093,0.046-0.173,0.109-0.239,0.184
			c-0.066,0.077-0.118,0.165-0.158,0.266c-0.04,0.1-0.065,0.208-0.077,0.32C29.147,23.898,30.696,23.898,30.696,23.898z"/>
		<path fill="#FFFFFF" d="M31.831,25.25h-0.275v-3.299h0.275v1.305c0.089-0.146,0.21-0.257,0.365-0.333
			c0.155-0.074,0.316-0.112,0.484-0.112c0.18,0,0.336,0.035,0.47,0.105c0.132,0.068,0.24,0.159,0.329,0.274
			c0.088,0.114,0.152,0.247,0.195,0.401c0.043,0.152,0.063,0.311,0.063,0.476c0,0.173-0.018,0.336-0.059,0.49
			c-0.04,0.152-0.103,0.284-0.19,0.397c-0.087,0.112-0.198,0.199-0.332,0.263c-0.135,0.064-0.299,0.097-0.491,0.097
			c-0.077,0-0.153-0.01-0.234-0.033c-0.079-0.019-0.156-0.052-0.23-0.093c-0.076-0.039-0.145-0.087-0.208-0.146
			c-0.062-0.061-0.114-0.13-0.154-0.21H31.83L31.831,25.25L31.831,25.25z M31.831,24.054c0,0.144,0.019,0.278,0.053,0.401
			c0.035,0.123,0.086,0.229,0.152,0.32c0.068,0.091,0.153,0.161,0.254,0.213c0.099,0.052,0.215,0.078,0.341,0.078
			c0.118,0,0.225-0.02,0.322-0.061c0.097-0.042,0.182-0.102,0.257-0.181c0.073-0.08,0.131-0.177,0.172-0.292
			c0.041-0.114,0.061-0.245,0.061-0.396c0.007-0.148-0.007-0.29-0.036-0.419c-0.031-0.13-0.08-0.243-0.147-0.341
			c-0.066-0.098-0.153-0.175-0.258-0.231c-0.107-0.057-0.229-0.085-0.37-0.085c-0.123,0-0.237,0.027-0.335,0.081
			c-0.099,0.053-0.183,0.125-0.252,0.215c-0.068,0.09-0.122,0.195-0.158,0.316C31.85,23.792,31.831,23.92,31.831,24.054"/>
		<path fill="#FFFFFF" d="M35.756,24.508c0.044,0.206,0.12,0.348,0.232,0.433c0.112,0.084,0.271,0.126,0.479,0.126
			c0.102,0,0.188-0.012,0.261-0.037c0.074-0.024,0.134-0.058,0.181-0.099c0.048-0.041,0.082-0.087,0.108-0.14
			c0.025-0.051,0.037-0.107,0.037-0.165c0-0.115-0.039-0.202-0.112-0.259c-0.075-0.057-0.169-0.101-0.282-0.132
			c-0.112-0.032-0.236-0.06-0.366-0.083c-0.132-0.021-0.253-0.056-0.366-0.103c-0.113-0.047-0.208-0.111-0.281-0.196
			c-0.076-0.087-0.112-0.207-0.112-0.363c0-0.199,0.072-0.361,0.217-0.488c0.144-0.127,0.35-0.191,0.616-0.191
			c0.256,0,0.466,0.058,0.625,0.173c0.161,0.115,0.256,0.306,0.291,0.576h-0.279c-0.025-0.184-0.094-0.312-0.209-0.388
			c-0.115-0.076-0.259-0.112-0.433-0.112c-0.173,0-0.306,0.037-0.398,0.112c-0.092,0.076-0.139,0.173-0.139,0.295
			c0,0.107,0.038,0.188,0.113,0.246c0.075,0.056,0.169,0.101,0.281,0.138c0.112,0.035,0.236,0.066,0.366,0.093
			c0.131,0.027,0.253,0.066,0.367,0.116c0.112,0.05,0.208,0.117,0.281,0.204c0.075,0.085,0.112,0.206,0.112,0.358
			c0,0.112-0.024,0.213-0.074,0.301c-0.048,0.086-0.116,0.158-0.201,0.217c-0.086,0.058-0.187,0.101-0.305,0.13
			c-0.116,0.029-0.245,0.045-0.387,0.045c-0.141,0-0.265-0.021-0.373-0.062c-0.109-0.042-0.2-0.099-0.276-0.173
			c-0.077-0.073-0.137-0.159-0.178-0.256c-0.044-0.098-0.069-0.204-0.075-0.316C35.477,24.508,35.756,24.508,35.756,24.508z"/>
		<path fill="#FFFFFF" d="M38.829,25.314c-0.153-0.004-0.295-0.031-0.428-0.083c-0.133-0.05-0.249-0.13-0.348-0.233
			c-0.099-0.105-0.178-0.235-0.237-0.39c-0.057-0.156-0.087-0.337-0.087-0.546c0-0.174,0.023-0.336,0.069-0.487
			c0.046-0.15,0.115-0.283,0.207-0.396c0.091-0.114,0.207-0.204,0.343-0.27c0.14-0.066,0.299-0.099,0.481-0.099
			c0.187,0,0.348,0.033,0.486,0.099s0.253,0.155,0.343,0.266c0.092,0.112,0.16,0.244,0.205,0.397
			c0.044,0.152,0.066,0.316,0.066,0.49c0,0.19-0.026,0.361-0.078,0.514c-0.052,0.152-0.126,0.283-0.221,0.394
			c-0.098,0.11-0.213,0.195-0.349,0.254S38.994,25.314,38.829,25.314 M39.636,24.063c0-0.14-0.015-0.272-0.045-0.394
			c-0.033-0.122-0.08-0.228-0.143-0.318c-0.064-0.089-0.145-0.161-0.248-0.213c-0.1-0.051-0.224-0.078-0.37-0.078
			c-0.143,0-0.267,0.028-0.368,0.085c-0.101,0.056-0.186,0.13-0.249,0.224c-0.064,0.092-0.111,0.201-0.142,0.321
			c-0.03,0.12-0.045,0.244-0.045,0.372c0,0.147,0.015,0.283,0.052,0.406c0.035,0.123,0.085,0.231,0.153,0.319
			c0.066,0.088,0.151,0.156,0.251,0.205c0.101,0.049,0.217,0.074,0.348,0.074c0.145,0,0.268-0.028,0.369-0.085
			c0.102-0.056,0.185-0.132,0.249-0.227c0.064-0.094,0.111-0.201,0.143-0.321C39.621,24.315,39.636,24.192,39.636,24.063"/>
		<rect x="40.474" y="21.952" fill="#FFFFFF" width="0.275" height="3.299"/>
		<path fill="#FFFFFF" d="M43.057,22.877h0.275v2.374h-0.275v-0.332c-0.037,0.045-0.078,0.089-0.122,0.134
			c-0.048,0.047-0.1,0.087-0.159,0.125c-0.06,0.04-0.13,0.071-0.208,0.097c-0.079,0.026-0.171,0.04-0.275,0.04
			c-0.159,0-0.292-0.023-0.398-0.068c-0.109-0.043-0.194-0.107-0.26-0.185c-0.066-0.079-0.112-0.172-0.143-0.276
			c-0.028-0.106-0.043-0.222-0.043-0.346v-1.562h0.274v1.556c0,0.206,0.048,0.362,0.144,0.47c0.093,0.109,0.248,0.163,0.465,0.163
			c0.113,0,0.215-0.021,0.305-0.066s0.166-0.107,0.226-0.186c0.061-0.08,0.109-0.174,0.143-0.284c0.032-0.11,0.048-0.23,0.048-0.361
			v-1.293H43.057z"/>
		<path fill="#FFFFFF" d="M44.829,25.258c-0.034,0.006-0.077,0.017-0.132,0.033c-0.056,0.014-0.116,0.023-0.184,0.023
			c-0.138,0-0.24-0.035-0.313-0.104c-0.073-0.069-0.108-0.191-0.108-0.369v-1.736h-0.335v-0.229h0.335v-0.659h0.275v0.659h0.444
			v0.229h-0.444v1.627c0,0.057,0.001,0.108,0.004,0.151c0.002,0.042,0.012,0.077,0.027,0.105c0.015,0.027,0.04,0.047,0.072,0.06
			c0.031,0.012,0.077,0.017,0.136,0.017c0.035,0,0.072-0.002,0.111-0.009c0.038-0.007,0.076-0.014,0.111-0.022L44.829,25.258
			L44.829,25.258z"/>
		<path fill="#FFFFFF" d="M45.298,21.952H45.6v0.408h-0.302V21.952z M45.31,22.877h0.275v2.374H45.31V22.877z"/>
		<path fill="#FFFFFF" d="M47.23,25.314c-0.153-0.004-0.296-0.031-0.429-0.083c-0.132-0.05-0.25-0.13-0.347-0.233
			c-0.101-0.105-0.178-0.235-0.237-0.39c-0.058-0.156-0.087-0.337-0.087-0.546c0-0.174,0.023-0.336,0.068-0.487
			c0.047-0.15,0.114-0.283,0.208-0.396c0.091-0.114,0.206-0.204,0.343-0.27c0.137-0.066,0.299-0.099,0.481-0.099
			c0.186,0,0.347,0.033,0.485,0.099s0.253,0.155,0.343,0.266c0.091,0.112,0.161,0.244,0.204,0.397
			c0.045,0.152,0.068,0.316,0.068,0.49c0,0.19-0.027,0.361-0.078,0.514c-0.052,0.152-0.127,0.283-0.222,0.394
			c-0.098,0.11-0.213,0.195-0.349,0.254C47.544,25.283,47.395,25.314,47.23,25.314 M48.037,24.063c0-0.14-0.016-0.272-0.046-0.394
			c-0.032-0.122-0.079-0.228-0.142-0.318c-0.064-0.089-0.146-0.161-0.248-0.213c-0.101-0.051-0.224-0.078-0.37-0.078
			c-0.143,0-0.268,0.028-0.369,0.085c-0.101,0.056-0.185,0.13-0.249,0.224c-0.064,0.092-0.112,0.201-0.142,0.321
			c-0.031,0.12-0.047,0.244-0.047,0.372c0,0.147,0.017,0.283,0.052,0.406s0.087,0.231,0.154,0.319
			c0.067,0.088,0.15,0.156,0.251,0.205c0.101,0.049,0.217,0.074,0.349,0.074c0.145,0,0.266-0.028,0.368-0.085
			c0.103-0.056,0.186-0.132,0.25-0.227c0.064-0.094,0.111-0.201,0.142-0.321C48.02,24.315,48.037,24.192,48.037,24.063"/>
		<path fill="#FFFFFF" d="M49.108,25.25h-0.275v-2.374h0.275v0.33c0.11-0.115,0.223-0.21,0.341-0.284
			c0.117-0.074,0.258-0.111,0.424-0.111c0.145,0,0.283,0.027,0.407,0.078c0.125,0.05,0.232,0.138,0.316,0.264
			c0.058,0.084,0.093,0.173,0.103,0.263c0.012,0.09,0.015,0.184,0.015,0.281v1.554H50.44v-1.549c0-0.215-0.047-0.375-0.141-0.481
			c-0.094-0.108-0.251-0.161-0.47-0.161c-0.087,0-0.165,0.014-0.235,0.04c-0.07,0.025-0.134,0.059-0.192,0.102
			c-0.054,0.043-0.103,0.091-0.142,0.147c-0.04,0.054-0.071,0.112-0.091,0.174c-0.029,0.077-0.046,0.149-0.051,0.22
			c-0.006,0.07-0.009,0.146-0.009,0.229L49.108,25.25L49.108,25.25z"/>
		<path fill="#FFFFFF" d="M51.539,24.508c0.044,0.206,0.12,0.348,0.233,0.433c0.111,0.084,0.27,0.126,0.477,0.126
			c0.103,0,0.189-0.012,0.262-0.037c0.074-0.024,0.134-0.058,0.18-0.099c0.049-0.041,0.083-0.087,0.108-0.14
			c0.026-0.051,0.038-0.107,0.038-0.165c0-0.115-0.039-0.202-0.112-0.259c-0.075-0.057-0.17-0.101-0.282-0.132
			c-0.112-0.032-0.236-0.06-0.366-0.083c-0.132-0.021-0.254-0.056-0.366-0.103s-0.208-0.111-0.281-0.196
			c-0.076-0.087-0.112-0.207-0.112-0.363c0-0.199,0.072-0.361,0.217-0.488c0.144-0.127,0.35-0.191,0.616-0.191
			c0.256,0,0.466,0.058,0.625,0.173s0.257,0.306,0.29,0.576h-0.278c-0.025-0.184-0.095-0.312-0.209-0.388
			c-0.113-0.076-0.258-0.112-0.432-0.112s-0.307,0.037-0.398,0.112c-0.093,0.076-0.139,0.173-0.139,0.295
			c0,0.107,0.038,0.188,0.112,0.246c0.075,0.056,0.17,0.101,0.282,0.138c0.112,0.035,0.235,0.066,0.366,0.093
			s0.253,0.066,0.366,0.116c0.114,0.05,0.208,0.117,0.282,0.204c0.075,0.085,0.112,0.206,0.112,0.358
			c0,0.112-0.025,0.213-0.074,0.301c-0.048,0.086-0.116,0.158-0.201,0.217c-0.086,0.058-0.187,0.101-0.305,0.13
			c-0.117,0.029-0.246,0.045-0.388,0.045c-0.14,0-0.264-0.021-0.372-0.062c-0.109-0.042-0.2-0.099-0.275-0.173
			c-0.079-0.073-0.138-0.159-0.18-0.256c-0.043-0.098-0.067-0.204-0.074-0.316C51.261,24.508,51.539,24.508,51.539,24.508z"/>
	</g>
</g>
</svg>
